:FULLY-SPECIFIED
:FORCE-ALL-JOINTS-BE-3DOF
:DEGREES
476
root 3.49724 16.0716 -7.16667 2.59691 56.3752 -9.71205
lfemur -41.293 0.143828 -15.1813
ltibia 52.6025 -0 0
lfoot -20.8985 -3.81373 0.0214228
ltoes 11.7284 -0 0
rfemur -33.7943 -1.9734 12.8129
rtibia 61.3029 -0 0
rfoot 4.26739 -4.07981 1.03515
rtoes -30.474 0 0
lowerback 4.06037 0.122868 2.03342
upperback 0.22498 0.283096 1.17395
thorax -1.97729 0.134357 0.0630413
lowerneck -8.11397 -5.89015 0.971065
upperneck 3.88291 -8.02543 1.21832
head 2.75179 -3.94458 -0.235063
lclavicle -2.64566e-14 -3.77206e-15 4.37223e-31
lhumerus -45.7078 -28.794 108.438
lradius 54.7547 -0 0
lwrist 3.63327 0 0
lhand -8.47231 -3.45542 0.696439
lfingers 7.12502 -0 0
lthumb 17.3998 25.0046 0.488946
rclavicle -2.64566e-14 -3.77206e-15 4.37223e-31
rhumerus -47.0804 12.8437 -92.1548
rradius 72.0817 -0 0
rwrist 19.7611 0 0
rhand -18.6435 -21.9889 0.10619
rfingers 7.12502 -0 0
rthumb 7.64549 -51.7074 0.116068
477
root 3.57716 16.0965 -7.11116 2.57391 57.7731 -9.4459
lfemur -40.5947 -0.859349 -15.5605
ltibia 52.1554 -0 0
lfoot -20.9972 -3.87475 0.0210025
ltoes 12.1405 -0 0
rfemur -34.9606 -1.6607 12.7564
rtibia 62.4522 -0 0
rfoot 4.75725 -3.48318 1.01473
rtoes -29.6045 0 0
lowerback 4.07199 0.0845731 1.84578
upperback 0.214012 0.223207 1.14057
thorax -1.99771 0.105695 0.136871
lowerneck -8.1507 -6.06071 0.844709
upperneck 4.03293 -8.24606 1.2551
head 2.81515 -4.0524 -0.216639
lclavicle -2.58113e-14 -3.96236e-15 4.2865e-31
lhumerus -45.8869 -28.9719 108.747
lradius 54.8151 -0 0
lwrist 3.63666 0 0
lhand -7.63807 -3.21943 0.682679
lfingers 7.12502 -0 0
lthumb 18.202 25.1768 0.479293
rclavicle -2.58113e-14 -3.96236e-15 4.2865e-31
rhumerus -47.0229 13.4721 -92.4067
rradius 72.3634 -0 0
rwrist 20.1264 0 0
rhand -18.2794 -21.9069 0.104105
rfingers 7.12502 -0 0
rthumb 7.99689 -51.6145 0.113789
478
root 3.65708 16.1214 -7.05564 2.56265 59.171 -9.17005
lfemur -39.8895 -1.85781 -15.952
ltibia 51.7083 -0 0
lfoot -21.0958 -3.93578 0.0204773
ltoes 12.5527 -0 0
rfemur -36.127 -1.34922 12.6935
rtibia 63.6015 -0 0
rfoot 5.24687 -2.88676 0.989213
rtoes -28.735 0 0
lowerback 4.08374 0.0463161 1.65814
upperback 0.20308 0.163312 1.1072
thorax -2.01816 0.0770597 0.210711
lowerneck -8.18707 -6.23135 0.718423
upperneck 4.1829 -8.4668 1.29132
head 2.8785 -4.16025 -0.198332
lclavicle -2.5166e-14 -4.15266e-15 4.17934e-31
lhumerus -46.0674 -29.1489 109.057
lradius 54.8755 -0 0
lwrist 3.64006 0 0
lhand -6.8039 -2.98366 0.665484
lfingers 7.12502 -0 0
lthumb 19.0043 25.3488 0.46723
rclavicle -2.5166e-14 -4.15266e-15 4.17934e-31
rhumerus -46.9681 14.1008 -92.6586
rradius 72.6451 -0 0
rwrist 20.4917 0 0
rhand -17.9154 -21.8249 0.101498
rfingers 7.12502 -0 0
rthumb 8.34828 -51.5216 0.11094
479
root 3.737 16.1464 -7.00012 2.5646 60.5689 -8.88292
lfemur -39.1769 -2.85134 -16.3561
ltibia 51.2613 -0 0
lfoot -21.1944 -3.9968 0.019847
ltoes 12.9648 -0 0
rfemur -37.2937 -1.03909 12.6244
rtibia 64.7508 -0 0
rfoot 5.73619 -2.29058 0.958601
rtoes -27.8654 0 0
lowerback 4.09562 0.00809777 1.4705
upperback 0.192183 0.103411 1.07384
thorax -2.03865 0.0484506 0.28456
lowerneck -8.22308 -6.40206 0.592204
upperneck 4.33281 -8.68762 1.32698
head 2.94181 -4.26812 -0.180141
lclavicle -2.45207e-14 -4.34296e-15 4.05074e-31
lhumerus -46.2493 -29.3251 109.367
lradius 54.936 -0 0
lwrist 3.64345 0 0
lhand -5.96981 -2.74817 0.644859
lfingers 7.12502 -0 0
lthumb 19.8065 25.5206 0.452761
rclavicle -2.45207e-14 -4.34296e-15 4.05074e-31
rhumerus -46.9159 14.7296 -92.9106
rradius 72.9269 -0 0
rwrist 20.8571 0 0
rhand -17.5513 -21.7429 0.0983712
rfingers 7.12502 -0 0
rthumb 8.69966 -51.4288 0.107522
480
root 3.81693 16.1713 -6.9446 2.58155 61.9668 -8.58261
lfemur -38.4566 -3.83976 -16.7729
ltibia 50.8142 -0 0
lfoot -21.2931 -4.05782 0.0191116
ltoes 13.3769 -0 0
rfemur -38.4606 -0.730423 12.5489
rtibia 65.9001 -0 0
rfoot 6.22516 -1.69469 0.922901
rtoes -26.9959 0 0
lowerback 4.10762 -0.0300814 1.28284
upperback 0.18132 0.0435041 1.04049
thorax -2.05917 0.0198683 0.358419
lowerneck -8.25871 -6.57286 0.466051
upperneck 4.48267 -8.90854 1.36207
head 3.0051 -4.376 -0.162068
lclavicle -2.38754e-14 -4.53326e-15 3.90072e-31
lhumerus -46.4326 -29.5005 109.68
lradius 54.9964 -0 0
lwrist 3.64685 0 0
lhand -5.13582 -2.513 0.620809
lfingers 7.12502 -0 0
lthumb 20.6086 25.6922 0.435887
rclavicle -2.38754e-14 -4.53326e-15 3.90072e-31
rhumerus -46.8665 15.3587 -93.1628
rradius 73.2086 -0 0
rwrist 21.2224 0 0
rhand -17.1873 -21.6609 0.0947231
rfingers 7.12502 -0 0
rthumb 9.05104 -51.336 0.103535
481
root 3.89686 16.1962 -6.88907 2.61565 63.3646 -8.26686
lfemur -37.7282 -4.82283 -17.2027
ltibia 50.3671 -0 0
lfoot -21.3917 -4.11883 0.0182712
ltoes 13.7891 -0 0
rfemur -39.6279 -0.42336 12.4672
rtibia 67.0495 -0 0
rfoot 6.71373 -1.09914 0.88212
rtoes -26.1264 0 0
lowerback 4.11974 -0.0682212 1.09518
upperback 0.170493 -0.0164091 1.00716
thorax -2.07974 -0.00868744 0.432288
lowerneck -8.29398 -6.74373 0.33996
upperneck 4.63249 -9.12955 1.39659
head 3.06837 -4.48391 -0.144112
lclavicle -2.32301e-14 -4.72356e-15 3.72926e-31
lhumerus -46.6174 -29.6749 109.993
lradius 55.0568 -0 0
lwrist 3.65024 0 0
lhand -4.30193 -2.27821 0.593339
lfingers 7.12502 -0 0
lthumb 21.4107 25.8636 0.416613
rclavicle -2.32301e-14 -4.72356e-15 3.72926e-31
rhumerus -46.8199 15.988 -93.4152
rradius 73.4903 -0 0
rwrist 21.5877 0 0
rhand -16.8233 -21.579 0.0905543
rfingers 7.12502 -0 0
rthumb 9.40241 -51.2432 0.0989789
482
root 3.97678 16.2211 -6.83355 2.66958 64.7623 -7.93291
lfemur -36.9912 -5.80034 -17.6458
ltibia 49.92 -0 0
lfoot -21.4903 -4.17985 0.0173259
ltoes 14.2012 -0 0
rfemur -40.7956 -0.118025 12.3793
rtibia 68.1988 -0 0
rfoot 7.20185 -0.503955 0.836265
rtoes -25.2569 0 0
lowerback 4.13199 -0.106321 0.907507
upperback 0.1597 -0.0763281 0.973835
thorax -2.10033 -0.0372163 0.506167
lowerneck -8.32889 -6.91468 0.213931
upperneck 4.78226 -9.35065 1.43055
head 3.13161 -4.59184 -0.126272
lclavicle -2.25848e-14 -4.91386e-15 3.53636e-31
lhumerus -46.8035 -29.8485 110.307
lradius 55.1172 -0 0
lwrist 3.65363 0 0
lhand -3.46817 -2.04384 0.562455
lfingers 7.12502 -0 0
lthumb 22.2128 26.0347 0.394942
rclavicle -2.25848e-14 -4.91386e-15 3.53636e-31
rhumerus -46.7759 16.6175 -93.6678
rradius 73.7721 -0 0
rwrist 21.9531 0 0
rhand -16.4592 -21.4971 0.085865
rfingers 7.12502 -0 0
rthumb 9.75378 -51.1504 0.0938536
483
root 4.05671 16.246 -6.77802 2.74662 66.1598 -7.57738
lfemur -36.2453 -6.77206 -18.1022
ltibia 49.4729 -0 0
lfoot -21.5889 -4.24086 0.0162755
ltoes 14.6133 -0 0
rfemur -41.9637 0.185454 12.2851
rtibia 69.3481 -0 0
rfoot 7.68945 0.090806 0.785344
rtoes -24.3874 0 0
lowerback 4.14436 -0.14438 0.719827
upperback 0.148942 -0.136253 0.940522
thorax -2.12097 -0.0657184 0.580055
lowerneck -8.36343 -7.0857 0.0879603
upperneck 4.932 -9.57183 1.46395
head 3.19483 -4.69978 -0.108549
lclavicle -2.19395e-14 -5.10416e-15 3.32204e-31
lhumerus -46.9911 -30.0212 110.623
lradius 55.1777 -0 0
lwrist 3.65703 0 0
lhand -2.63455 -1.80995 0.528164
lfingers 7.12502 -0 0
lthumb 23.0147 26.2054 0.370879
rclavicle -2.19395e-14 -5.10416e-15 3.32204e-31
rhumerus -46.7348 17.2472 -93.9208
rradius 74.0538 -0 0
rwrist 22.3184 0 0
rhand -16.0952 -21.4152 0.0806554
rfingers 7.12502 -0 0
rthumb 10.1051 -51.0577 0.0881596
484
root 4.13664 16.2709 -6.72249 2.85089 67.5571 -7.19604
lfemur -35.49 -7.73776 -18.5724
ltibia 49.0258 -0 0
lfoot -21.6875 -4.30187 0.0151201
ltoes 15.0255 -0 0
rfemur -43.1324 0.486949 12.1848
rtibia 70.4974 -0 0
rfoot 8.17649 0.685105 0.729367
rtoes -23.5179 0 0
lowerback 4.15686 -0.182399 0.532139
upperback 0.13822 -0.196184 0.90722
thorax -2.14164 -0.0941935 0.653952
lowerneck -8.3976 -7.2568 -0.0379538
upperneck 5.0817 -9.7931 1.49678
head 3.25802 -4.80775 -0.0909434
lclavicle -2.12942e-14 -5.29446e-15 3.08628e-31
lhumerus -47.1801 -30.1929 110.94
lradius 55.2381 -0 0
lwrist 3.66042 0 0
lhand -1.80108 -1.57659 0.490475
lfingers 7.12502 -0 0
lthumb 23.8166 26.3758 0.344428
rclavicle -2.12942e-14 -5.29446e-15 3.08628e-31
rhumerus -46.6964 17.877 -94.1742
rradius 74.3355 -0 0
rwrist 22.6837 0 0
rhand -15.7312 -21.3333 0.0749256
rfingers 7.12502 -0 0
rthumb 10.4565 -50.965 0.081897
485
root 4.21658 16.2958 -6.66696 2.98763 68.9541 -6.78357
lfemur -34.7248 -8.69718 -19.0566
ltibia 48.5788 -0 0
lfoot -21.7862 -4.36287 0.0138597
ltoes 15.4376 -0 0
rfemur -44.3017 0.786336 12.0783
rtibia 71.6467 -0 0
rfoot 8.66292 1.2789 0.668344
rtoes -22.6483 0 0
lowerback 4.16949 -0.220377 0.344441
upperback 0.127532 -0.25612 0.87393
thorax -2.16235 -0.122642 0.727859
lowerneck -8.4314 -7.42798 -0.163813
upperneck 5.23138 -10.0144 1.52905
head 3.32119 -4.91573 -0.0734542
lclavicle -2.06489e-14 -5.48476e-15 2.82909e-31
lhumerus -47.3705 -30.3638 111.258
lradius 55.2985 -0 0
lwrist 3.66382 0 0
lhand -0.96777 -1.3438 0.449395
lfingers 7.12502 -0 0
lthumb 24.6184 26.5458 0.315596
rclavicle -2.06489e-14 -5.48476e-15 2.82909e-31
rhumerus -46.6608 18.507 -94.4281
rradius 74.6172 -0 0
rwrist 23.049 0 0
rhand -15.3672 -21.2515 0.068676
rfingers 7.12502 -0 0
rthumb 10.8078 -50.8723 0.0750662
486
root 4.29651 16.3207 -6.61142 3.16357 70.3507 -6.33314
lfemur -33.9494 -9.65007 -19.5551
ltibia 48.1317 -0 0
lfoot -21.8848 -4.42387 0.0124944
ltoes 15.8497 -0 0
rfemur -45.4716 1.08349 11.9658
rtibia 72.7961 -0 0
rfoot 9.14869 1.87215 0.602286
rtoes -21.7788 0 0
lowerback 4.18223 -0.258313 0.156735
upperback 0.116879 -0.316062 0.840652
thorax -2.1831 -0.151063 0.801775
lowerneck -8.46484 -7.59922 -0.289621
upperneck 5.38104 -10.2359 1.56076
head 3.38434 -5.02374 -0.0560816
lclavicle -2.00036e-14 -5.67506e-15 2.55047e-31
lhumerus -47.5624 -30.5338 111.577
lradius 55.3589 -0 0
lwrist 3.66721 0 0
lhand -0.134642 -1.11163 0.404935
lfingers 7.12502 -0 0
lthumb 25.4201 26.7154 0.284388
rclavicle -2.00036e-14 -5.67506e-15 2.55047e-31
rhumerus -46.628 19.1371 -94.6825
rradius 74.899 -0 0
rwrist 23.4144 0 0
rhand -15.0032 -21.1697 0.0619067
rfingers 7.12502 -0 0
rthumb 11.1591 -50.7797 0.0676675
487
root 4.37645 16.3456 -6.55588 3.3875 71.7467 -5.83589
lfemur -33.1632 -10.5962 -20.068
ltibia 47.6846 -0 0
lfoot -21.9834 -4.48487 0.0110242
ltoes 16.2619 -0 0
rfemur -46.6422 1.37828 11.8472
rtibia 73.9454 -0 0
rfoot 9.63374 2.46481 0.531204
rtoes -20.9093 0 0
lowerback 4.19511 -0.296207 -0.0309801
upperback 0.106261 -0.37601 0.807384
thorax -2.20388 -0.179456 0.875701
lowerneck -8.49792 -7.77054 -0.415378
upperneck 5.53067 -10.4574 1.59189
head 3.44746 -5.13176 -0.0388256
lclavicle -1.93584e-14 -5.86536e-15 2.25041e-31
lhumerus -47.7557 -30.7028 111.897
lradius 55.4194 -0 0
lwrist 3.67061 0 0
lhand 0.698294 -0.880139 0.357104
lfingers 7.12502 -0 0
lthumb 26.2217 26.8845 0.25081
rclavicle -1.93584e-14 -5.86536e-15 2.25041e-31
rhumerus -46.5981 19.7674 -94.9375
rradius 75.1807 -0 0
rwrist 23.7797 0 0
rhand -14.6392 -21.088 0.0546182
rfingers 7.12502 -0 0
rthumb 11.5104 -50.6872 0.059701
488
root 4.45638 16.3705 -6.50035 3.67112 73.142 -5.28001
lfemur -32.366 -11.5352 -20.5959
ltibia 47.2375 -0 0
lfoot -22.082 -4.54586 0.00944901
ltoes 16.674 -0 0
rfemur -47.8136 1.67058 11.7225
rtibia 75.0947 -0 0
rfoot 10.118 3.05684 0.455112
rtoes -20.0398 0 0
lowerback 4.2081 -0.334058 -0.218705
upperback 0.0956773 -0.435963 0.774128
thorax -2.2247 -0.207823 0.949636
lowerneck -8.53062 -7.94193 -0.541087
upperneck 5.68029 -10.679 1.62246
head 3.51057 -5.2398 -0.0216862
lclavicle -1.87131e-14 -6.05566e-15 1.92893e-31
lhumerus -47.9504 -30.8709 112.219
lradius 55.4798 -0 0
lwrist 3.674 0 0
lhand 1.53103 -0.649365 0.305914
lfingers 7.12502 -0 0
lthumb 27.0233 27.0531 0.214869
rclavicle -1.87131e-14 -6.05566e-15 1.92893e-31
rhumerus -46.571 20.3978 -95.1932
rradius 75.4624 -0 0
rwrist 24.145 0 0
rhand -14.2753 -21.0063 0.0468106
rfingers 7.12502 -0 0
rthumb 11.8617 -50.5947 0.0511671
